<svg xmlns="http://www.w3.org/2000/svg" viewBox="0 0 407.68 143.89"><defs><style>.cls-1,.cls-5{fill:#d41f32;}.cls-2{fill:#fca416;}.cls-3{fill:#df2935;}.cls-4{fill:#fff;}.cls-5{stroke:#d41f32;stroke-miterlimit:10;}</style></defs><title>Asset 1</title><g id="Layer_2" data-name="Layer 2"><g id="Layer_2-2" data-name="Layer 2"><path class="cls-1" d="M86.32,67.22s-9.39,8.53-5.79,0a18.49,18.49,0,0,0,1.24-6.37c-1.43,4.25-16.24,8.37-13.41,6.25a43.48,43.48,0,0,0,10.1-9.79c4.67-6.44,7.15-11.53,6.88-22.61,0,0-.09-24.2-22.32-32,0,0-19.83-5.39-31.93-.87a3.8,3.8,0,0,0-.47.18,32.86,32.86,0,0,1,5.73,34.47C30.09,51.93,19,68.08,14.11,76.06,12,79.48,8.57,86.43,6.8,90c-.2.41.1-4.61,1.58-10.83C9.62,74,2.32,93.25,1.66,95.68c-3.42,12.78-3.17,30.83,16.7,45.48a30.63,30.63,0,0,0,3.52,2.73v-7.11c-11.46-11-11.4-23.59-9-32.79.5-1.93,6.14-17.23,5.19-13.11-1.15,4.94-1.38,8.93-1.22,8.6,1.36-2.84,4-8.36,5.65-11.07,3.8-6.34,31.21-30.57,27.65-51.06,0,0,6.65,8.73,9.71,15.17a37.49,37.49,0,0,1,3.2,11.71c.27,4.45-5.83,8.75-5.73,9.8s14.44-.32,16.94-2.9A23.44,23.44,0,0,1,73,80.87c-2.78,6.78,7.27-1.73,7.27-1.73,20.22,24.75,10.74,43.83,0,55.1v7.28C95.21,130.12,117.64,104.52,86.32,67.22ZM78.37,33.06c1.08,9.84-8.49,14.44-8.49,14.44,4.73-4.68,5.12-13,5.13-13.93.13-7.34-5.75-16.41-5.75-16.41l-.9-3.83C77.61,23.6,78.37,33.06,78.37,33.06Z"/><path class="cls-2" d="M12.19,107.81,51.05,73.58l38.87,34.23H80.23v26.43c10.74-11.27,20.22-30.35,0-55.1,0,0-10,8.51-7.27,1.73a23.44,23.44,0,0,0,1.32-9.74c-2.5,2.58-16.84,4-16.94,2.9s6-5.35,5.73-9.8a37.49,37.49,0,0,0-3.2-11.71c-3.06-6.44-9.71-15.17-9.71-15.17,3.56,20.49-23.85,44.72-27.65,51.06-1.63,2.71-4.29,8.23-5.65,11.07-.16.33.07-3.66,1.22-8.6,1-4.12-4.69,11.18-5.19,13.11-2.41,9.2-2.47,21.84,9,32.79v-29Z"/><path class="cls-3" d="M16.41,48.64C15,43.3,13.24,34.29,15,27.27,15.35,26,18.77,13.9,27.28,8.7c0,0-15.55,3.43-17.35,18.16,0,0-2.13,14.07,7.86,32.24A41.1,41.1,0,0,0,16.41,48.64Z"/><circle class="cls-2" cx="51.05" cy="122.61" r="19.83"/><path class="cls-4" d="M52.13,128.14c-.39.44-.77.89-1.17,1.31a3.52,3.52,0,0,1-1.07.81,2,2,0,0,1-3-1.73c-.52,0-.7.24-.84.73a34.12,34.12,0,0,1-1.05,3.44c-.1.26,0,.35.22.38.5.08,1,.22,1.49.28s1.17.3,1.77.39a11.26,11.26,0,0,0,7.59-1.26c.2-.12.43-.28.59,0s-.13.38-.31.5a10.16,10.16,0,0,1-5,1.46,20.59,20.59,0,0,1-4.57-.36,12.81,12.81,0,0,1-1.79-.48.42.42,0,0,0-.59.2,3.54,3.54,0,0,1-2.35,1.64,2,2,0,0,1-2.32-2,1.65,1.65,0,0,1,1.46-1.22,7.49,7.49,0,0,1,2.53.45c.39.1.59.08.75-.37.41-1.13.73-2.28,1-3.44.06-.24,0-.28-.18-.27h-.1c-.24,0-.6.11-.58-.3s.35-.33.6-.32.55,0,.67-.47c.41-1.47.88-2.93,1.36-4.38A2.39,2.39,0,0,1,49,121.46a1.2,1.2,0,0,1,1.68,1c0,.15,0,.28.25.2a5.37,5.37,0,0,1,3.8.29c.69.24.69.22.87-.49.13-.54.24-1.08.37-1.62.06-.22.06-.56.4-.49s.21.37.16.59c-.16.68-.31,1.35-.49,2-.05.17-.09.28.14.32a7.08,7.08,0,0,0,5.5-.79A4.23,4.23,0,0,0,57.77,115l-.33.15c-.18.09-.38.15-.48-.1s.07-.34.26-.42a4.79,4.79,0,0,1,6.23,6.77,5.74,5.74,0,0,1-4.6,2.62,8.06,8.06,0,0,1-2.59-.18c-.32-.07-.46,0-.53.35-.29,1.32-.62,2.63-.88,4a2.72,2.72,0,0,0,.26,2,1.56,1.56,0,0,0,1.57.79,1.65,1.65,0,0,0,1.53-1.25c.06-.26.12-.44.41-.35s.19.29.13.5a2.3,2.3,0,0,1-2.54,1.65,2.38,2.38,0,0,1-2-2.05,8.48,8.48,0,0,1,.38-3.13c.18-.74.36-1.49.55-2.22.08-.29,0-.45-.29-.52a6.52,6.52,0,0,1-1-.31,4.4,4.4,0,0,0-4.07.52l-.14.08c-.16.1-.34.16-.46,0s0-.37.14-.5l.49-.37a.56.56,0,0,0,.25-.68.61.61,0,0,0-.7-.34,1.7,1.7,0,0,0-1.32,1,15.7,15.7,0,0,0-.83,2.51c-.22.71-.42,1.43-.61,2.15,0,.14-.23.34.11.43s.25-.16.29-.3a5.29,5.29,0,0,1,3-3.67,1.64,1.64,0,0,1,2.2.55,1.76,1.76,0,0,1-.83,2.22,3.52,3.52,0,0,1-1.59.42l-1.61.11a.56.56,0,0,0-.59.57,1.92,1.92,0,0,0,.4,1.46,1.29,1.29,0,0,0,1.72.33,11.65,11.65,0,0,0,2.14-1.89c.36-.34.71-.7,1.07-1,.15-.15.31-.34.53-.13s.05.36-.1.52a1.09,1.09,0,0,0-.09,1.7c.27.35.6.67.88,1a2.07,2.07,0,0,1,.22,2.42,2.48,2.48,0,0,1-2.92.58,2,2,0,0,1-1-2.18A1.21,1.21,0,0,1,51,130a.27.27,0,0,1,.41,0,.23.23,0,0,1,0,.36,1,1,0,0,0-.31,1.25,1.52,1.52,0,0,0,1.47.89A1.4,1.4,0,0,0,54,131.8a1.51,1.51,0,0,0-.38-1.63c-.25-.31-.53-.6-.78-.9a2.42,2.42,0,0,1-.52-1ZM48,126.7h1.55a1.55,1.55,0,0,0,.31,0,2.9,2.9,0,0,0,1.28-.39,1.17,1.17,0,0,0,.51-1.39,1.06,1.06,0,0,0-1.37-.35A4.57,4.57,0,0,0,48,126.7Zm-3.94,6.66-1.65-.47a2.81,2.81,0,0,0-1.08-.11,1,1,0,0,0-.89.74,1,1,0,0,0,.52,1.09,1.7,1.7,0,0,0,1.55.12A3,3,0,0,0,44.07,133.36Z"/><path class="cls-4" d="M48.11,118.41h.61c.19,0,.34.07.35.29a.25.25,0,0,1-.31.27c-.84-.16-.85.4-.93,1a13.24,13.24,0,0,1-1.43,4.9,4.83,4.83,0,0,1-3.64,2.54A3,3,0,0,1,39.94,126a3.18,3.18,0,0,1-.2-3.32c.1-.22.28-.33.49-.21s.15.3.05.49a2.73,2.73,0,0,0,.27,2.89,2.88,2.88,0,0,0,3,.71,5,5,0,0,0,2.83-3.11,23.21,23.21,0,0,0,.83-3.36c.05-.22.05-.48.09-.72s0-.45-.34-.4a1.61,1.61,0,0,1-.31,0c-.18,0-.31-.07-.32-.27s.13-.33.29-.3c.81.17.93-.35,1-1a15.56,15.56,0,0,1,.85-2.46c.05-.14.14-.27-.07-.38-1.06-.52-2-1.2-3.13-1.64a2.06,2.06,0,0,0-2.91,1A2.67,2.67,0,0,0,44,118a3.63,3.63,0,0,0,.87,0c.2,0,.44,0,.44.23a.42.42,0,0,1-.41.4,3.18,3.18,0,0,1-2-.47,2.85,2.85,0,0,1-1.37-1.84,3.35,3.35,0,0,1,.67-3.16,2.72,2.72,0,0,1,2.88-.85,12.07,12.07,0,0,1,2.48,1.2,7.35,7.35,0,0,1,.85.51c.27.18.43.19.62-.16a3.92,3.92,0,0,1,2.9-2.17,2.37,2.37,0,0,1,2.8,2.85A2.49,2.49,0,0,1,52.32,116a5.92,5.92,0,0,1-2.77-.8c-.32-.18-.46-.11-.58.22a21.41,21.41,0,0,0-.71,2.23C48.2,117.9,48.16,118.14,48.11,118.41Zm4.34-6.18a3.61,3.61,0,0,0-3,2.08c0,.14,0,.22.08.3a4.77,4.77,0,0,0,3.52.71,1.45,1.45,0,0,0,1.19-1.17,1.63,1.63,0,0,0-.76-1.6A1.7,1.7,0,0,0,52.45,112.23Z"/><path class="cls-4" d="M56.61,119.24c.06.18.16.33.37.28a.31.31,0,0,0,.26-.34c0-.19.06-.36.29-.34s.27.22.28.43c0,.46-.34.67-.65.86a.54.54,0,0,1-.73-.18c-.13-.15-.21-.14-.35,0-.53.73-.81.78-1.63.33-.19-.1-.2,0-.28.1-.79.76-1.47.7-2.13-.22-.11.18-.19.36-.31.52a1,1,0,0,1-1.08.48,1.05,1.05,0,0,1-.86-.86,2.45,2.45,0,0,1,.1-1.39c0-.17.14-.34.36-.28s.21.27.16.46a2.68,2.68,0,0,0-.09,1,.58.58,0,0,0,.43.53c.26.07.42-.11.54-.31a5,5,0,0,0,.58-1.71c.09-.48.13-1,.22-1.44.06-.27-.08-.78.36-.73s.21.53.2.83c0,.55-.12,1.1-.16,1.65a2.63,2.63,0,0,0,.08.93.6.6,0,0,0,1,.3,2,2,0,0,0,.56-1.09c.11-.55.21-1.09.37-1.62a1.17,1.17,0,0,1,1.1-1c.68,0,1,.25,1,.94s0,1.14,0,1.71c0,0,0,0,0,0ZM56,117.51c0-.17.07-.38-.17-.44a.52.52,0,0,0-.59.23,4.92,4.92,0,0,0-.53,2.39.39.39,0,0,0,.31.37.44.44,0,0,0,.41-.18,1,1,0,0,0,.26-.5A13.51,13.51,0,0,0,56,117.51Z"/><path class="cls-4" d="M43,125.52a2.37,2.37,0,0,0,1.72-1.18c.09-.19.17-.48.46-.35s.14.39.06.59a2.57,2.57,0,0,1-4.21.71,1.92,1.92,0,0,1-.22-2.18c.11-.15.23-.28.43-.16a.27.27,0,0,1,.08.4C40.75,124.35,41.53,125.56,43,125.52Z"/><path class="cls-4" d="M56.23,114.07a3.08,3.08,0,0,1,2.51-.76c.23,0,.45,0,.45.3s-.26.27-.46.26a3.44,3.44,0,0,0-2.41.78c-.15.12-.29.28-.51.18s-.22-.32-.2-.54a2.15,2.15,0,0,0-.75-1.9c-.15-.13-.24-.27-.08-.44s.33-.1.5,0a2.63,2.63,0,0,1,.87,1.57C56.18,113.68,56.19,113.81,56.23,114.07Z"/><path class="cls-4" d="M56.43,124.21l1.33.13c.15,0,.27.06.3.22s-.09.28-.24.34a1,1,0,0,1-.74,0c-.55-.17-.61-.1-.77.43-.08.27,0,.82-.47.69s-.1-.45-.09-.72.13-.54.18-.77A.38.38,0,0,1,56.43,124.21Z"/><path class="cls-4" d="M46.15,134.11a.18.18,0,0,1,.06.25c-.1.19-.19.39-.44.25-.48-.27-.79-.2-1.05.25l-.15.19a3,3,0,0,1-.61.45.24.24,0,0,1-.37,0,.26.26,0,0,1,0-.37,3.15,3.15,0,0,0,1-1.21.23.23,0,0,1,.26-.13l1.14.33A.1.1,0,0,1,46.15,134.11Z"/><path class="cls-4" d="M50.63,118a.2.2,0,0,1-.23.21c-.16,0-.27-.08-.25-.25a.24.24,0,0,1,.29-.22C50.58,117.77,50.63,117.87,50.63,118Z"/><path class="cls-4" d="M56.61,119.24l0-.06s0,0,0,0l0,.06S56.61,119.23,56.61,119.24Z"/><path class="cls-5" d="M153.72,74.8a3.72,3.72,0,0,1-3.45,1.74H138.11s.1,1.66.22,5c0,1,0,2.24.08,3.58l.05.7v.61c0,.4,0,.64,0,.69q.25,9.38.39,19.14c0,.21,0,.6.05,1.18l0,.44,0,.43,0,1a43.08,43.08,0,0,1,.08,4.58c-.11,4-1,6.08-2.57,6.23s-2.29-1.61-2.44-5.19c-.06-1.13-.06-2.5,0-4.1l0-.87,0-.39v-.35c0-.52,0-.87,0-1q-.18-17-1-33.22-.39-8-1-16.52L131.61,50l-.39-4.18V44.45l0-.61c0-1.07-.14-1.68-.31-1.83a2.5,2.5,0,0,1-1-2.53c.23-1,1-1.55,2.27-1.52,2.93.08,6.92-.06,11.94-.44l3-.22,3-.21c2.26-.15,4.26-.24,6-.27a2.87,2.87,0,0,1,1.92.7,4,4,0,0,1,1.22,1.61,1.81,1.81,0,0,1,.09,1.62,1.57,1.57,0,0,1-1.57.74c-1.63,0-3.46.1-5.5.22l-5.45.39q-7.28.52-11,.57,1.35,14.52,2.13,30l.26,0h14.44a1.25,1.25,0,0,1,1.22.74A1.52,1.52,0,0,1,153.72,74.8Z"/><path class="cls-5" d="M170.37,38.74c-.06-1,.8-1.29,2.57-1s2.63.89,2.66,1.7a730.61,730.61,0,0,1-1.44,78.17c0,.35-.32.59-.87.7a4.39,4.39,0,0,1-1.83-.13,4.6,4.6,0,0,1-1.83-.74,1.37,1.37,0,0,1-.74-1.22A744.81,744.81,0,0,0,170.37,38.74Z"/><path class="cls-5" d="M211.57,114.13c1.05.2,1.54.55,1.49,1s-.5.6-1.4.74a6.11,6.11,0,0,1-1.09.13l-.48,0a1.7,1.7,0,0,1-.35,0,2,2,0,0,0,1.48.44,4.75,4.75,0,0,1,.92.13,2,2,0,0,1,.78.39c.67.64.72,1.11.14,1.4a3.52,3.52,0,0,1-.92.26c-.32,0-.63,0-.92,0l-6.67-.3L191,117.92a2.57,2.57,0,0,1-2.36-1.39,2,2,0,0,1,.09-2.27q.25-14.31.39-30.52.09-13.17.13-30.52V43c0-.73,0-1.34.05-1.84a12.15,12.15,0,0,1,.56-3.48l.48-.4.44-.35a4.45,4.45,0,0,1,.78-.61c.59-.32,1.23-.11,1.92.61a4.61,4.61,0,0,1,1.14,2.4,18.25,18.25,0,0,1,.08,2.66q0,1.53,0,3.84v3.88l0,15.39q0,15.69-.22,31-.09,9.51-.26,17.35l12,.53a3.39,3.39,0,0,0,.83,0l.65,0h.74A14.89,14.89,0,0,1,211.57,114.13Z"/><path class="cls-5" d="M225.87,121.54l-.39.17a2.89,2.89,0,0,1-2.22-.21,2.73,2.73,0,0,1-1.44-1.66q-.34-1.4,2-12.52c.52-2.44,1.08-4.94,1.66-7.49.23-1,.42-1.76.56-2.4l.22-.92-1.48-.22a3.43,3.43,0,0,1-1.66-.69,2.76,2.76,0,0,1-.91-1.18.84.84,0,0,1,.3-1,2.58,2.58,0,0,1,1.83-.22l2.62.35q.26,0,3.27-13.34.52-2.31,1.18-5.06c.29-1.37.62-2.91,1-4.62.76-3.43,1.16-5.26,1.22-5.5q2.79-12.16,4.62-24.85c.06-.29.1-.55.13-.78a7.58,7.58,0,0,1,.22-1,8.41,8.41,0,0,1,.66-1.92c.72-1.43,1.71-1.8,3-1.14a4.56,4.56,0,0,1,2,2.58,10.59,10.59,0,0,1,.43,1.65l.13.83.13.83c.38,2.65.93,5.71,1.66,9.2q1.53,7.32,4.93,20.19l1.44,5.53,1.43,5.54q.66,2.53,1.62,6l1.61,6a3,3,0,0,1,1.09,1.14c.15.43,0,.75-.52,1a181.38,181.38,0,0,1,5.06,23.29c0,.11-.28.21-.83.3a14.91,14.91,0,0,1-1.83.18,9.53,9.53,0,0,1-1.88-.09c-.58-.09-.89-.23-.91-.44A178.52,178.52,0,0,0,253,96.69a98.58,98.58,0,0,1-22.19.3q-.57,0-1.09,4.89c-.12,1-.22,2.22-.31,3.53q0,.6-.09,1.26a3.22,3.22,0,0,0,0,.39v.26a27.38,27.38,0,0,1-1.22,7.5,6.45,6.45,0,0,0-.3,1.71l-.09,1-.09,1-.3,2.35Zm15.31-70.68q-1.71,9-4.62,21.58L234,83.21,231.45,94A89.63,89.63,0,0,0,252,93.2l-1.78-6.41c-.64-2.44-1.2-4.58-1.66-6.41l-1.92-7.32-1.92-7.37Q242.49,56.92,241.18,50.86Z"/><path class="cls-5" d="M291.75,74.8a3.69,3.69,0,0,1-3.44,1.74H276.15s.1,1.66.21,5c0,1,.06,2.24.09,3.58l0,.7v.61c0,.4.05.64.05.69q.25,9.38.39,19.14c0,.21,0,.6,0,1.18l0,.44,0,.43,0,1a40.83,40.83,0,0,1,.09,4.58c-.12,4-1,6.08-2.57,6.23s-2.3-1.61-2.44-5.19c-.06-1.13-.06-2.5,0-4.1l0-.87,0-.39v-.35c0-.52.05-.87.05-1q-.18-17-1-33.22-.39-8-1.05-16.52L269.65,50l-.39-4.18V44.45l-.05-.61q0-1.61-.3-1.83a2.48,2.48,0,0,1-1-2.53c.23-1,1-1.55,2.27-1.52q4.39.12,11.94-.44l3-.22,3-.21q3.39-.23,6-.27a2.87,2.87,0,0,1,1.92.7,4,4,0,0,1,1.22,1.61,1.77,1.77,0,0,1,.08,1.62,1.54,1.54,0,0,1-1.56.74c-1.63,0-3.46.1-5.5.22l-5.45.39c-4.85.35-8.52.54-11,.57q1.35,14.52,2.14,30l.26,0h14.43a1.27,1.27,0,0,1,1.23.74A1.53,1.53,0,0,1,291.75,74.8Z"/><path class="cls-5" d="M306.71,39.88a9.79,9.79,0,0,1,.65-4.67c.18-.44,1.5-.73,4-.87l1.44-.05c.41,0,.84,0,1.31,0h1.7l1.92-.09,2,0c1.65,0,2.95,0,3.88-.13l1.44-.22,1.44-.22a4.62,4.62,0,0,1,2.79.48c.23.7-.21,1.14-1.31,1.31l-.66,0-.61.14c-.4.08-.64.23-.69.43.32,0,.81,0,1.48,0h1.48a2.07,2.07,0,0,1,.35,1v.52l0,.57c0,.46-1.22.72-3.67.78h-1.39c-.38,0-.8,0-1.26,0l-1.53,0a79,79,0,0,0-9.55.82q0,13-.17,34.75l3.18-.39,3.18-.44a36.66,36.66,0,0,1,6.41-.26,1.08,1.08,0,0,1,1,.61,1.11,1.11,0,0,1-.35,1.18,4.19,4.19,0,0,1-3.58,1.44,30,30,0,0,0-5,.17l-2.48.35-2.49.35q-.16,25.47-.17,39c1-.08,2.18-.21,3.49-.39l3.48-.48c3.06-.43,5.39-.72,7-.87a3.34,3.34,0,0,1,1.53.39,8.16,8.16,0,0,1,1.61,1c.5.44.74.8.74,1.09s-.3.51-1,.57c-1.25.12-2.7.29-4.36.52l-4.36.62a71.68,71.68,0,0,1-8.81.82,5.08,5.08,0,0,1-2.48-1,9.9,9.9,0,0,1-1.27.3c-.34.06-.52.06-.52,0q0-12.56.18-33.87l.08-17,.09-16.91q0-.91.09-2.4l.08-2.4a32.41,32.41,0,0,0-.13-4.75l-.08-.92Z"/><path class="cls-5" d="M355.85,37.13a11.43,11.43,0,0,1,6.45-.44q4.67,1.23,7.19,6.37c.12.23.38.93.79,2.09s.78,2.53,1.13,3.75q1.48,5.19.87,5.23c-.9.06-1.48-.11-1.74-.52a4.19,4.19,0,0,1-.31-.74l-.13-.48-.22-.52a2,2,0,0,0-.08.91l0,.52v.53q-1.48.3-2.31-2.49-.25-.92-.48-2.22L367,48.6l-.08-.44a5.33,5.33,0,0,0-.09-.7,11.74,11.74,0,0,0-1.61-4.31,4.2,4.2,0,0,0-3.8-2q-6.06.13-8.72,7.37-4.53,12.42,1.62,21.41c.78,1.16,1.73,2.41,2.83,3.75l1.53,1.78,1.57,1.75a69.92,69.92,0,0,1,5.84,7.28q3.22,4.84,3.53,13.34c.09,2.15.09,4.06,0,5.71a29.61,29.61,0,0,1-.79,6q-1.65,6.89-6.49,9.15-5.9,2.76-11.86-2.35a21.47,21.47,0,0,1-6.89-10.64,1.47,1.47,0,0,1,.26-1.66,1.72,1.72,0,0,1,1.48-.26,3.94,3.94,0,0,1,1.88.79,2.92,2.92,0,0,1,1.18,1.57,13.75,13.75,0,0,0,3.14,5.8,7.85,7.85,0,0,0,5.93,2.66q3.66,0,5.31-3.93a28.78,28.78,0,0,0,2-12.82c0-1.19-.1-2.09-.13-2.7a24.88,24.88,0,0,0-.3-2.79,15.09,15.09,0,0,0-1.62-5.19,24.66,24.66,0,0,0-3-4.27L358,81,356.24,79q-7-8-9.2-14.3-2.44-7-.31-15.7Q349.09,39.31,355.85,37.13Z"/><path class="cls-5" d="M394.82,43.28q0,7.23-.52,18.35l-.39,9.16-.35,9.2a274.3,274.3,0,0,0,.87,36.67,2.18,2.18,0,0,1-.65,1.83,3.55,3.55,0,0,1-1.75,1,2.69,2.69,0,0,1-1.87,0,1.67,1.67,0,0,1-1-1.44,275.49,275.49,0,0,1-.92-37.15l.31-9.33.39-9.28q.44-11.34.52-18.62h-.17a1.36,1.36,0,0,1-.4,0l-1.43.09c-1.55.09-3,.15-4.32.17a34.11,34.11,0,0,1-4.27-.13c-1.31-.14-1.94-.39-1.88-.74.09-.58.8-.93,2.14-1h.78l.79-.05a5.86,5.86,0,0,0,1.09,0,1.51,1.51,0,0,0-1.14-.7,4.16,4.16,0,0,0-.87-.08l-.91,0c-1.57,0-2.3-.39-2.18-1s.69-1,1.65-1c.35,0,.76,0,1.22,0l.57,0h.22l.22,0a51,51,0,0,0,6.27,0,159.32,159.32,0,0,0,16.57-1.53,3.07,3.07,0,0,1,2,.48,3.91,3.91,0,0,1,1.39,1.44,2,2,0,0,1,.31,1.57,1.7,1.7,0,0,1-1.48,1C402.27,42.56,398.66,43,394.82,43.28Z"/></g></g></svg>